<svg xmlns="http://www.w3.org/2000/svg" viewBox="0 0 480 240" shape-rendering="crispEdges"><rect width="480" height="240" fill="#86d5df"/><rect y="72" width="480" height="58" fill="#f4d2e3"/><circle cx="405" cy="49" r="31" fill="#ffe780"/><polygon points="0,138 70,92 138,132 212,82 282,132 370,86 480,134 480,174 0,174" fill="#9bcb76"/><rect y="154" width="480" height="86" fill="#61954d"/><path d="M0 190 Q80 140 160 188 T320 184 T480 186 V240 H0Z" fill="#8fc76b"/><g fill="#f190b9"><rect x="72" y="172" width="10" height="38"/><rect x="60" y="183" width="34" height="10"/><rect x="336" y="166" width="10" height="42"/><rect x="324" y="178" width="34" height="10"/></g><path d="M186 156 Q240 100 294 156" fill="none" stroke="#f8b0c6" stroke-width="11"/><path d="M196 158 Q240 116 284 158" fill="none" stroke="#ffe47d" stroke-width="10"/><g fill="#fff5a5"><rect x="110" y="96" width="5" height="20"/><rect x="103" y="103" width="20" height="5"/><rect x="366" y="110" width="5" height="20"/><rect x="359" y="117" width="20" height="5"/></g></svg>